<svg width="45" height="45" viewBox="0 0 45 45" fill="none" xmlns="http://www.w3.org/2000/svg">
<path d="M22.5 15C24.4891 15 26.3968 15.7902 27.8033 17.1967C29.2098 18.6032 30 20.5109 30 22.5C30 24.4891 29.2098 26.3968 27.8033 27.8033C26.3968 29.2098 24.4891 30 22.5 30C20.5109 30 18.6032 29.2098 17.1967 27.8033C15.7902 26.3968 15 24.4891 15 22.5C15 20.5109 15.7902 18.6032 17.1967 17.1967C18.6032 15.7902 20.5109 15 22.5 15ZM5.71875 24.375H1.875V20.625H5.71875C6.5625 12.8062 12.8062 6.5625 20.625 5.71875V1.875H24.375V5.71875C32.1938 6.5625 38.4375 12.8062 39.2812 20.625H43.125V24.375H39.2812C38.4375 32.1938 32.1938 38.4375 24.375 39.2812V43.125H20.625V39.2812C12.8062 38.4375 6.5625 32.1938 5.71875 24.375ZM22.5 9.375C19.019 9.375 15.6806 10.7578 13.2192 13.2192C10.7578 15.6806 9.375 19.019 9.375 22.5C9.375 25.981 10.7578 29.3194 13.2192 31.7808C15.6806 34.2422 19.019 35.625 22.5 35.625C25.981 35.625 29.3194 34.2422 31.7808 31.7808C34.2422 29.3194 35.625 25.981 35.625 22.5C35.625 19.019 34.2422 15.6806 31.7808 13.2192C29.3194 10.7578 25.981 9.375 22.5 9.375Z" fill="#D07F1E"/>
</svg>
