<svg width="164" height="235" viewBox="0 0 164 235" fill="none" xmlns="http://www.w3.org/2000/svg">
<path fill-rule="evenodd" clip-rule="evenodd" d="M142.628 126.296C140.787 119.153 139.093 116.124 135.822 113.641C132.762 111.318 128.296 109.368 121.779 107.943C114.991 106.756 114.798 103.227 113.096 97.5556C112.6 95.8506 110.139 95.3966 109.078 96.6256C108.928 96.4646 108.772 96.3166 108.61 96.1826C108.755 95.3696 107.571 93.0386 107.611 92.2606C108.023 84.1426 105.368 80.0656 98.7418 78.5496C97.3008 78.2206 87.5118 78.0266 86.1068 78.4146C79.9638 80.1136 73.9168 85.5066 74.8428 92.0036C72.9138 94.5246 71.0268 96.0626 68.0518 96.8746C61.4318 97.7156 54.8121 98.4626 48.19 99.1026C35.2274 101.137 23.0739 108 14.7673 118.008C14.0011 118.932 13.7798 120.186 14.456 121.171C13.9263 123.44 10.9446 128.945 13.2907 130.5C9.43268 139.729 0.55618 157.567 0.53958 162.663C0.46958 184.072 2.78178 211.939 23.9036 223.786C24.7493 224.618 24.8703 225.538 25.2365 226.775C26.1651 230.673 29.5376 233.458 33.2288 233.231C51.4127 233.635 69.0248 231.416 87.2088 231.309C95.2288 231.261 104.873 232.459 111.839 233.256C118.805 234.054 125.837 233.348 132.522 231.309C133.086 232.197 134.226 232.714 135.382 232.459C142.312 231.082 147.917 226.81 152.798 222.141C154.29 219.427 160.115 211.694 157.8 209.002C159.899 200.127 159.789 190.591 156.06 182.14C156.588 180.591 155.625 178.888 156.06 177.288C156.374 176.131 157.181 175.652 157.586 174.506C158.157 172.892 157.536 170.728 156.893 169.082C156.63 168.262 157.378 167.379 157.586 166.541C158.573 162.593 156.314 162.941 154.686 160.301C154.71 160.293 155.133 158.408 155.131 158.418C155.381 157.072 154.756 155.349 154.211 154.226C153.843 153.467 153.054 152.992 152.27 153.079C153.06 150.399 154.058 148.168 155.131 145.586C157.03 141.035 159.433 136.676 162.159 132.556C163.275 130.869 161.776 128.915 159.969 128.8C154.122 128.428 148.339 127.586 142.628 126.296Z" fill="#FFE3BB"/>
<path fill-rule="evenodd" clip-rule="evenodd" d="M125.563 160.717C123.224 159.799 120.706 159.292 118.175 159.095C119.537 158.857 120.904 158.626 122.282 158.508C123.243 158.425 124.134 158.434 124.857 159.163C125.339 159.649 125.565 160.275 125.882 160.85C125.778 160.803 125.67 160.759 125.563 160.717ZM150.665 152.14C146.835 152.335 143.001 153.246 139.536 154.896C138.118 155.572 136.834 156.549 136.458 158.155C136.267 158.975 136.314 159.823 136.415 160.651C136.491 161.279 136.51 162.08 137.056 162.505C137.148 162.576 137.248 162.631 137.351 162.672C136.073 163.249 134.856 163.942 133.774 164.656C132.786 165.309 131.77 166.315 131.313 167.45C131.275 167.321 131.237 167.201 131.199 167.087C130.422 164.787 129.224 162.904 127.337 161.638C127.671 161.488 127.901 161.133 127.794 160.643C127.346 158.595 125.455 156.815 123.319 156.942C120.98 157.079 118.468 157.931 116.353 159.007C115.582 158.99 114.813 159 114.053 159.034C113.922 159.038 113.928 159.216 114.053 159.231C114.67 159.309 115.286 159.396 115.903 159.497C117.37 159.732 118.832 160.03 120.262 160.4C121.977 160.844 123.752 161.289 125.356 162.065C128.465 163.572 130.39 167.512 129.995 170.94C129.929 171.502 129.712 173.201 128.932 173.026C128.273 172.878 128.011 171.502 127.781 170.992C127.164 169.64 126.053 168.756 124.72 168.158C123.154 167.454 121.479 166.979 119.856 166.425C118.937 166.11 118.018 165.795 117.097 165.483C116.155 165.159 115.259 164.713 114.256 164.939C113.649 165.077 113.579 165.8 113.92 166.214C114.437 166.846 115.206 167.032 115.952 167.292C116.936 167.634 117.919 167.977 118.901 168.319C120.42 168.847 122.011 169.293 123.492 169.94L123.446 170.046C123.325 170.012 123.183 170.132 123.207 170.28C123.429 171.648 123.737 173.229 123.395 174.598C123.125 175.684 122.171 176.887 120.934 176.568C121.128 176.39 121.2 176.084 121.069 175.801C120.579 174.752 114.156 170.614 113.584 172.151C113.565 172.206 113.624 172.246 113.67 172.238C114.158 172.136 114.976 172.969 115.367 173.233C115.931 173.613 116.503 173.985 117.061 174.376C117.672 174.803 118.267 175.251 118.848 175.714C119.305 176.078 119.649 176.456 120.173 176.64C119.898 176.771 119.681 177.014 119.588 177.325C119.351 178.134 118.895 178.821 118.103 179.178C117.272 179.55 116.336 179.315 115.462 179.407C114.27 179.527 113.231 180.093 112.363 180.903C110.539 182.606 109.625 185.608 107.075 186.413C105.551 186.893 103.861 186.59 102.319 186.372C100.597 186.129 98.9198 185.937 97.1848 186.191C95.5248 186.434 93.9548 187.009 92.4378 187.71C91.0158 188.368 89.4438 189.112 88.1828 190.092C87.9228 189.291 87.6608 188.499 87.4618 187.681C86.9938 185.747 86.7398 183.777 86.6788 181.79C86.6218 179.899 86.7268 177.999 86.8898 176.116C86.9698 175.175 87.0968 174.239 87.1768 173.298C87.1978 173.062 87.2408 172.808 87.2718 172.555C89.5248 171.225 91.8908 170.206 94.2758 169.158C94.2818 169.156 94.2888 169.152 94.2948 169.15C94.3688 169.116 94.4408 169.084 94.5148 169.052C94.5128 169.048 94.5098 169.044 94.5058 169.04C94.7788 168.873 94.9688 168.651 95.0828 168.401C98.5198 166.121 101.394 163.008 103.536 159.377C104.434 157.855 105.298 156.276 106.472 154.943C107.723 153.52 109.208 152.675 111.046 152.235C113.195 151.72 115.409 151.411 117.61 151.235C118.813 151.141 120.156 150.992 121.466 150.999C122.379 151.005 123.272 151.083 124.092 151.309C125.307 151.643 126.017 152.567 126.779 153.501C127.508 154.397 128.233 155.296 128.913 156.23C129.557 157.115 130.166 158.03 130.694 158.99C131.011 159.565 131.305 160.157 131.552 160.767C131.639 160.983 131.753 161.228 131.806 161.452C131.858 161.678 131.761 161.917 132.015 161.917C130.969 161.932 130.979 163.604 132.019 163.542C136.088 163.306 130.259 155.359 129.407 154.251C128.201 152.683 126.957 150.637 125.026 149.908C124.998 149.898 124.969 149.887 124.941 149.879C125.503 149.346 125.947 148.708 126.372 148.059C126.809 147.391 127.331 146.626 127.475 145.833C127.565 145.328 126.938 145.041 126.64 145.482C126.207 146.127 125.998 146.943 125.675 147.651C125.345 148.37 124.944 149.048 124.627 149.773C123.864 149.538 123.04 149.431 122.201 149.395C123.26 147.962 125.068 145.197 125.286 144.842C126.287 143.198 127.24 141.503 128.151 139.806C129.135 137.967 129.978 136.052 130.92 134.192C131.455 133.138 131.994 132.074 132.587 131.051C132.792 130.701 133.012 130.35 133.261 130.031C133.31 129.967 133.371 129.915 133.428 129.855C133.494 129.819 133.561 129.779 133.599 129.758C133.941 129.562 134.062 129.105 134.302 128.815C134.687 128.349 135.139 128.294 135.718 128.287C136.952 128.274 138.19 128.323 139.422 128.357C141.232 128.407 143.041 128.479 144.849 128.574C145.396 128.604 145.941 128.634 146.489 128.667C149.119 128.824 151.747 129.029 154.369 129.281C156.689 129.502 159.008 129.864 161.33 130.037C158.186 137.508 154.701 144.844 150.754 151.925C150.714 151.996 150.684 152.068 150.665 152.14ZM133.223 171.388C132.716 171.62 132.224 171.91 131.766 172.239C131.842 171.726 131.861 171.185 131.839 170.641C132.218 171.047 132.701 171.28 133.223 171.388ZM154.868 158.536C154.832 158.54 154.798 158.559 154.781 158.595C154.08 160.042 154.373 161.659 155.518 162.794C156.118 163.386 157.426 164.054 157.384 165.026C157.348 165.812 156.492 166.472 156.127 167.12C155.787 167.725 155.66 168.389 155.933 169.044C156.281 169.883 157.255 170.217 157.589 171.041C158.011 172.087 157.325 173.349 156.843 174.26C156.395 175.103 155.816 175.946 155.432 176.838C152.856 178.172 150.552 180.218 148.57 182.296C146.4 184.568 144.539 187.241 141.093 187.174C140.749 187.167 140.487 187.349 140.33 187.6C139.371 187.645 138.41 187.664 137.451 187.668C135.765 187.676 134.079 187.659 132.395 187.607C132.277 187.199 132.364 186.645 132.357 186.3C132.336 185.191 132.326 184.083 132.279 182.974C132.266 182.665 132.254 182.355 132.241 182.046C132.847 183.143 134.03 183.642 135.378 183.566C137.546 183.439 139.726 183.084 141.872 182.765C143.003 182.598 144.131 182.407 145.257 182.204C146.183 182.04 147.488 182.082 148.135 181.34C148.287 181.167 148.295 180.85 148.056 180.734C147.416 180.419 147.013 180.594 146.309 180.729C145.452 180.896 144.592 181.055 143.73 181.203C142.075 181.49 140.417 181.756 138.754 181.991C137.808 182.124 136.859 182.255 135.911 182.359C135.083 182.448 134.149 182.568 133.481 181.945C132.135 180.685 132.89 178.574 133.741 177.301C133.758 177.276 133.758 177.253 133.752 177.231C134.554 177.043 135.355 176.824 136.154 176.669C137.69 176.373 139.236 176.124 140.785 175.902C143.966 175.448 147.169 175.148 150.368 174.845C151.16 174.769 151.168 173.522 150.368 173.596C145.772 174.017 141.154 174.416 136.621 175.302C135.484 175.522 134.356 175.771 133.234 176.052C132.704 176.183 132.135 176.388 131.58 176.395C131.546 176.395 131.512 176.395 131.478 176.392C130.39 176.359 130.232 175.427 130.83 174.651C130.904 174.556 130.98 174.461 131.058 174.37C132.114 173.11 133.43 172.269 134.787 171.398C136.306 171.191 137.821 170.73 139.308 170.392C142.98 169.555 146.652 168.718 150.326 167.883C151.046 167.719 150.74 166.611 150.019 166.774C147.23 167.406 144.442 168.038 141.653 168.67L137.571 169.596C136.756 169.779 135.737 170.149 134.778 170.282C134.305 170.348 133.847 170.356 133.433 170.259C132.095 169.942 132.028 168.27 132.604 167.277C133.251 166.161 134.472 165.463 135.556 164.832C137.434 163.735 139.433 162.946 141.385 162.037C141.731 161.961 142.078 161.885 142.424 161.809C144.44 161.365 146.742 161.148 148.64 160.334C149.208 160.093 148.897 159.197 148.335 159.21C146.863 159.241 145.323 159.765 143.884 160.076C142.327 160.414 140.768 160.75 139.211 161.086C139.054 161.12 138.129 161.416 137.99 161.351C137.901 161.308 137.869 161 137.84 160.797C137.744 160.129 137.675 159.427 137.778 158.757C138.006 157.255 139.259 156.549 140.527 155.972C143.349 154.689 146.445 153.886 149.525 153.564C150.235 153.49 150.945 153.444 151.659 153.421C152.497 153.395 153.188 153.247 153.613 154.074C154.28 155.376 154.648 157.05 154.868 158.536ZM150.948 205.739C150.333 203.612 150.5 201.34 150.079 199.169C149.861 198.049 149.564 196.939 149.24 195.845C148.979 194.962 148.543 194.023 148.493 193.102C148.49 193.04 148.563 193.005 148.612 193.033C149.48 193.53 150.146 194.605 150.641 195.448C151.234 196.457 151.686 197.514 152.051 198.625C152.778 200.839 153.375 203.509 152.437 205.739C152.158 206.404 151.178 206.536 150.948 205.739ZM131.941 177.555C132.461 177.504 132.981 177.405 133.5 177.289C132.919 177.855 132.383 178.538 132.085 179.294C132.038 178.713 131.979 178.134 131.901 177.557C131.914 177.557 131.928 177.557 131.941 177.555ZM126.946 221.848C126.03 221.208 125.362 220.314 124.585 219.524C123.82 218.748 125.015 217.552 125.78 218.329C126.443 219.002 127.019 219.843 127.799 220.388C128.175 220.65 128.349 221.123 128.102 221.544C127.885 221.916 127.321 222.109 126.946 221.848ZM121.835 197.258C123.508 196.534 125.154 195.746 126.905 195.225C127.951 194.913 128.394 196.545 127.354 196.855C125.741 197.335 124.229 198.051 122.688 198.718C121.699 199.145 120.839 197.688 121.835 197.258ZM104.167 196.751C103.757 195.742 105.393 195.306 105.796 196.302C106.261 197.448 106.793 198.565 107.257 199.71C107.665 200.72 106.03 201.156 105.627 200.16C105.163 199.014 104.631 197.898 104.167 196.751ZM86.7278 216.918C86.4548 217.282 86.0008 217.479 85.5708 217.222C85.2118 217.006 84.9918 216.433 85.2678 216.065C86.0738 214.991 86.8898 213.93 87.8338 212.972C88.5998 212.196 89.7938 213.392 89.0288 214.168C88.1858 215.023 87.4468 215.959 86.7278 216.918ZM84.2338 103.763C85.0098 104.293 85.6898 104.937 86.3518 105.6C87.1228 106.37 85.9268 107.565 85.1568 106.795C84.5988 106.237 84.0348 105.67 83.3808 105.223C83.0028 104.965 82.8328 104.484 83.0778 104.066C83.2968 103.692 83.8568 103.506 84.2338 103.763ZM109.605 130.972C109.167 131.85 108.772 132.711 108.747 133.71C108.72 134.798 107.03 134.799 107.057 133.71C107.089 132.403 107.571 131.27 108.146 130.118C108.632 129.143 110.09 130.001 109.605 130.972ZM118.914 109.12C119.823 108.514 120.668 109.979 119.768 110.58C119.038 111.066 118.307 111.554 117.577 112.04C116.669 112.646 115.824 111.181 116.724 110.58C117.454 110.094 118.184 109.607 118.914 109.12ZM78.5378 147.326C78.3828 148.4 76.7548 147.941 76.9078 146.877C77.1458 145.232 77.4358 143.609 77.8818 142.007C78.1738 140.959 79.8038 141.407 79.5118 142.456C79.0658 144.058 78.7748 145.681 78.5378 147.326ZM72.6118 166.694C71.5238 166.671 71.5238 164.98 72.6118 165.003C73.5968 165.024 74.5648 165.283 75.5138 165.521C76.5708 165.785 76.1198 167.415 75.0648 167.151C74.2618 166.95 73.4448 166.712 72.6118 166.694ZM70.4248 205.71C70.0508 205.891 69.6678 206.055 69.2898 206.228C68.5328 206.574 67.7768 206.921 67.0208 207.268C65.4458 207.991 63.8728 208.717 62.2998 209.445C59.152 210.902 55.9798 212.309 52.8243 213.751C49.6065 215.221 46.3971 216.711 43.1917 218.209C41.6816 218.914 40.16 219.594 38.6415 220.28C37.343 220.868 35.738 221.894 34.3126 221.991C34.2393 221.996 34.2148 221.903 34.2566 221.855C34.7951 221.243 35.6541 220.886 36.3619 220.488C37.0848 220.081 37.8213 219.698 38.5544 219.31C40.0827 218.5 41.6129 217.696 43.156 216.915C46.2427 215.352 49.3352 213.801 52.4284 212.252C55.583 210.671 58.7336 209.081 61.9158 207.557C63.4138 206.839 64.9138 206.123 66.4148 205.41C67.2278 205.024 68.0408 204.638 68.8548 204.253C69.2058 204.087 69.5538 203.907 69.9128 203.758C70.3898 203.561 70.7528 203.601 71.2448 203.479C72.0478 203.281 72.3948 204.302 71.7788 204.747C71.2718 205.113 71.0048 205.427 70.4248 205.71ZM59.1412 223.047C58.9677 222.625 59.3309 222.112 59.7315 222.007C60.2113 221.88 60.596 222.172 60.7711 222.597C61.2344 223.725 61.8948 224.759 62.7438 225.633C63.5028 226.414 62.3088 227.61 61.5488 226.829C60.4842 225.733 59.7194 224.453 59.1412 223.047ZM50.8403 195.907C50.0699 195.136 51.2652 193.941 52.0355 194.712L54.2259 196.903C54.9964 197.673 53.8008 198.869 53.0308 198.098L50.8403 195.907ZM28.3677 192.335C26.793 192.797 24.9562 193.221 23.8825 194.565C23.8301 194.631 23.742 194.547 23.7735 194.481C25.148 191.631 29.0899 190.631 31.819 189.632C33.7494 188.925 35.73 188.34 37.7273 187.816C37.5277 185.537 38.0782 183.094 38.2697 180.826C38.4739 178.404 38.6402 175.976 38.7256 173.547C38.8128 171.069 38.8339 168.574 38.7524 166.095C38.6713 163.626 38.3508 161.186 38.2105 158.725C38.197 158.487 38.5282 158.475 38.5997 158.672C39.4291 160.956 39.7834 163.486 40.0534 165.895C40.3314 168.376 40.4237 170.85 40.3882 173.345C40.3515 175.911 40.2023 178.47 39.9976 181.028C39.9006 182.24 39.788 183.451 39.6818 184.662C39.6006 185.587 39.563 186.504 39.3746 187.399C40.5792 187.103 41.7866 186.823 42.9902 186.551C46.8281 185.685 50.682 184.881 54.5039 183.944C56.3799 183.484 58.2292 182.934 60.0968 182.445C61.8558 181.984 63.7118 181.426 65.5168 181.22C66.1618 181.147 66.2438 182.028 65.8168 182.328C64.3498 183.359 62.4008 184.076 60.7054 184.653C59.0043 185.232 57.236 185.649 55.4924 186.078C51.8563 186.972 48.1857 187.704 44.5206 188.466C40.8606 189.227 37.1937 189.982 33.5749 190.921C31.8321 191.373 30.0953 191.827 28.3677 192.335ZM19.7382 147.101C18.7972 147.653 17.9477 146.192 18.8853 145.641C20.1122 144.92 21.4197 144.379 22.7378 143.851C23.7493 143.446 24.1846 145.082 23.1872 145.482C22.0026 145.956 20.8406 146.454 19.7382 147.101ZM16.3307 209.917C15.3872 210.465 14.537 209.003 15.4778 208.457C16.7991 207.691 18.246 207.18 19.6153 206.51C20.5894 206.032 21.445 207.491 20.4681 207.97C19.0991 208.64 17.652 209.151 16.3307 209.917ZM14.7982 174.26C15.7105 175.127 16.928 175.535 18.0761 175.99C19.077 176.387 18.638 178.021 17.6267 177.62C16.1964 177.053 14.7395 176.535 13.6031 175.455C12.8125 174.704 14.0098 173.51 14.7982 174.26ZM24.8907 125.834C25.8936 126.228 25.4544 127.862 24.4414 127.465C23.3178 127.024 22.1576 126.688 21.034 126.247C20.0314 125.854 20.4704 124.219 21.4834 124.617C22.6069 125.058 23.7672 125.393 24.8907 125.834ZM42.6948 106.599C43.7604 106.42 44.2142 108.049 43.1442 108.23C41.8165 108.454 40.5092 108.717 39.2501 109.204C38.2332 109.597 37.797 107.962 38.8007 107.574C40.0601 107.086 41.3674 106.824 42.6948 106.599ZM48.5776 153.431C47.6005 152.95 48.4578 151.493 49.4305 151.971C50.4555 152.475 51.5176 152.865 52.636 153.103C53.701 153.33 53.2475 154.96 52.1867 154.734C50.9279 154.465 49.7303 153.998 48.5776 153.431ZM54.1339 127.051C55.186 126.763 55.6309 128.395 54.5833 128.682C52.74 129.187 50.8422 129.45 48.9853 129.899C47.9271 130.156 47.4794 128.525 48.536 128.269C50.3928 127.819 52.2908 127.557 54.1339 127.051ZM77.7038 118.773C78.7738 118.971 78.3178 120.601 77.2548 120.404C76.1228 120.194 74.9758 120.191 73.8288 120.19C72.7398 120.19 72.7418 118.499 73.8288 118.499C75.1318 118.5 76.4188 118.535 77.7038 118.773ZM154.576 127.607C151.815 127.342 149.049 127.131 146.28 126.973C146.151 126.966 146.024 126.958 145.895 126.951C145.88 126.922 145.861 126.894 145.842 126.865C144.938 125.537 144.273 124.21 143.696 122.709C143.144 121.281 142.61 119.808 141.761 118.519C140.792 117.05 139.484 115.9 138.051 114.904C137.182 115.489 136.375 116.174 135.637 116.9C134.86 117.663 133.664 116.468 134.441 115.704C135.097 115.059 135.798 114.463 136.538 113.925C135.683 113.405 134.811 112.917 133.961 112.431C130.772 110.612 127.508 108.929 124.177 107.391C122.628 106.674 121.061 106.038 119.482 105.393C118.633 105.047 117.794 104.601 116.945 104.2C117.006 103.599 116.827 102.927 116.366 102.532C116.026 102.242 115.762 102.134 115.356 101.93C115.266 101.898 115.211 101.879 115.185 101.868C115.204 101.872 115.259 101.889 115.35 101.919C115.566 102.018 115.582 101.989 115.401 101.832C115.39 101.49 114.716 100.767 114.562 100.414C114.025 99.2028 113.858 97.9218 113.066 96.8188C111.974 95.2988 110.14 94.7248 108.431 95.2398C108.254 93.4118 108.207 91.5038 107.518 89.8718C107.499 89.8278 107.438 89.8088 107.411 89.8568C106.692 91.0808 106.631 92.4438 106.576 93.8558C106.523 95.1808 106.574 96.5358 106.747 97.8528C106.637 97.9368 106.525 98.0178 106.409 98.0958C105.864 98.4548 105.277 98.7318 104.66 98.9368C103.485 99.3258 102.254 99.4948 101.022 99.5538C97.8418 99.7058 94.5658 99.3848 91.4388 98.8398C88.2758 98.2878 83.4268 97.4588 80.6128 95.8758C78.7558 94.8328 77.0428 93.5578 75.3058 92.3238C75.9358 90.2948 76.0968 88.1128 75.4628 86.3988C75.3868 86.1938 75.0658 86.1558 75.0038 86.3988C74.6068 88.0348 74.4908 89.6798 73.9628 91.2958C73.9538 91.3198 73.9458 91.3448 73.9368 91.3678C73.7728 91.2558 73.6078 91.1458 73.4428 91.0358C73.0628 90.7848 72.5448 90.9728 72.3168 91.3318C68.6678 97.0828 62.8898 97.4128 56.8224 98.4398C50.182 99.5638 43.5083 100.778 37.1238 102.978C31.0181 105.083 25.1829 108.148 20.5604 112.725C19.514 113.762 18.5354 114.866 17.6117 116.019C18.5054 116.132 19.3917 116.307 20.2665 116.582C21.3024 116.908 20.8572 118.539 19.8172 118.213C18.6928 117.859 17.556 117.684 16.4075 117.597C13.2666 121.896 10.8176 126.77 8.69983 131.567C4.63783 140.765 1.99383 150.561 0.777127 160.534C1.44513 160.133 2.12523 159.752 2.82223 159.397C3.79063 158.904 4.64483 160.364 3.67533 160.857C2.59863 161.405 1.55293 162.009 0.539628 162.663C0.0970281 167.029 -0.0744724 171.422 0.0294276 175.809C0.276628 186.267 1.68793 197.031 4.88013 207.009C6.44563 211.906 8.52033 216.763 11.6111 220.901C13.0097 222.775 14.5984 224.466 16.4703 225.876C17.3766 226.561 18.3358 227.172 19.3477 227.687C20.6512 228.355 22.3498 228.575 23.4738 229.519C23.8435 229.83 24.1287 230.24 24.3442 230.703C24.2196 231.582 24.2048 232.464 24.4456 233.343C24.5217 233.618 24.7287 233.842 24.9843 233.949C24.9886 234.025 24.9886 234.099 24.9886 234.171C24.9886 234.205 25.0393 234.214 25.0456 234.18C25.0562 234.114 25.0667 234.049 25.0773 233.981C25.1597 234.009 25.2463 234.021 25.335 234.021C28.5442 234.034 31.7574 233.955 34.9708 233.846C34.7223 233.085 34.4531 232.33 34.1948 231.568C33.8438 230.534 35.4767 230.094 35.8245 231.119C36.1268 232.009 36.4429 232.892 36.7241 233.785C40.1671 233.657 43.6091 233.503 47.0449 233.39C54.3527 233.146 61.6578 233.066 68.9678 232.912C80.3198 232.671 91.7538 232.178 103.123 232.66C103.516 231.826 103.956 231.01 104.374 230.187C104.866 229.215 106.324 230.071 105.833 231.04C105.543 231.612 105.243 232.177 104.957 232.748C107.26 232.868 109.56 233.026 111.855 233.242C115.772 233.609 119.651 234.262 123.564 234.668C127.542 235.082 131.434 235.008 135.38 234.351C136.09 234.233 136.508 233.804 136.682 233.271C136.688 233.269 136.692 233.265 136.696 233.258C136.899 233.022 137.089 232.825 137.286 232.654C137.52 232.502 137.774 232.373 138.072 232.259C138.627 232.047 139.206 231.918 139.794 231.832C140.44 231.735 141.095 231.726 141.742 231.646C142.286 231.576 142.819 231.472 143.351 231.346C144.308 231.118 145.217 230.819 146.121 230.424C146.909 230.08 147.621 229.585 148.293 229.046C149.683 228.029 150.887 226.732 151.939 225.383C152.552 224.595 153.129 223.777 153.653 222.926C154.566 221.45 155.343 219.918 156.129 218.373C156.414 217.915 156.674 217.446 156.912 216.968C155.376 216.515 153.826 216.146 152.197 216.12C151.109 216.102 151.109 214.411 152.197 214.429C154.065 214.459 155.831 214.895 157.586 215.415C157.672 215.188 157.754 214.959 157.83 214.727C158.039 214.243 158.212 213.746 158.356 213.243C158.44 213.015 158.525 212.787 158.609 212.559C158.799 211.768 158.989 210.976 159.182 210.183C159.564 208.915 159.866 207.628 160.088 206.324C160.274 205.466 160.418 204.601 160.515 203.726C160.811 201.606 161.051 199.491 161.068 197.348C161.043 196.027 160.958 194.708 160.815 193.395C160.754 192.504 160.65 191.616 160.511 190.735C160.329 189.424 160.149 188.127 159.847 186.833C159.621 185.958 159.395 185.083 159.169 184.208C158.605 182.384 157.939 180.596 157.172 178.848C157.13 178.739 156.917 178.497 156.788 178.495C156.691 178.493 156.555 178.582 156.6 178.701C156.604 178.711 156.608 178.724 156.613 178.734C156.568 178.635 156.526 178.533 156.482 178.434C156.444 178.341 156.296 178.155 156.182 178.157C156.175 178.157 156.169 178.157 156.161 178.159C156.19 178.138 156.218 178.111 156.245 178.079C157.004 177.181 157.496 175.999 158.039 174.959C158.489 174.101 158.913 173.197 159.036 172.227C159.143 171.375 158.998 170.536 158.463 169.847C157.855 169.063 156.71 168.695 157.346 167.562C158.068 166.273 159.131 165.155 158.073 163.69C157.534 162.944 156.68 162.534 156.047 161.885C155.318 161.135 154.971 160.131 154.99 159.106C155.035 159.131 155.094 159.119 155.115 159.055C155.727 157.204 155.284 155.171 154.656 153.368C154.314 152.39 153.589 152.121 152.747 152.073C156.397 144.939 159.813 137.692 162.858 130.278C162.959 130.035 163.058 129.792 163.158 129.549C163.306 129.185 162.993 128.701 162.632 128.621C159.999 128.044 157.257 127.86 154.576 127.607Z" fill="#66280F"/>
<path fill-rule="evenodd" clip-rule="evenodd" d="M81.4218 5.21442C113.444 3.63902 115.68 12.9497 120.078 18.8855C122.26 21.8313 127.894 26.1939 128.829 36.2681C129.477 43.2612 125.347 51.3216 125.347 57.5706C125.347 60.7596 129.251 67.6076 127.434 72.2566C123.389 82.6046 114.824 94.0876 103.91 94.0876C92.9958 94.0876 72.8488 88.0706 60.7889 70.7966C56.8388 65.1386 49.4001 6.78972 81.4218 5.21442Z" fill="#FFE3BB"/>
<path fill-rule="evenodd" clip-rule="evenodd" d="M128.03 58.1946C127.331 57.4226 126.788 56.7886 126.606 55.7276C126.53 55.2856 126.496 54.8316 126.481 54.3756C129.289 50.4486 132.019 41.1728 132.019 36.0995C132.018 28.9422 129.38 22.0555 125.049 16.3596C116.607 5.26558 102.553 -0.42182 88.7998 0.0243798C75.6288 0.44898 61.6208 5.30578 53.4047 15.6877C26.1461 50.1326 49.0238 87.7566 65.7798 95.5836C67.2388 96.2656 71.9498 96.0286 71.2928 94.5736C69.4078 90.3936 67.9218 82.6936 67.5758 80.9606C68.1118 81.3226 68.6528 81.6756 69.1958 82.0406C70.1578 82.6856 71.4458 83.4226 72.6548 83.2096C72.7118 83.1996 72.7478 83.1376 72.7498 83.0846C72.8048 81.9496 71.9928 80.7836 71.2788 79.9736C70.2888 78.8496 69.3458 77.6976 68.2788 76.6426C67.8248 76.1926 67.3648 75.7466 66.9038 75.3006C66.8448 72.6246 67.0238 69.9366 67.5038 67.2466C68.3338 62.5816 69.7668 58.0376 71.4118 53.5656C72.7878 52.5506 74.1228 51.4836 75.3588 50.3166C78.3358 47.5082 80.6068 44.0719 82.5548 40.4578C82.5778 40.447 82.6028 40.4343 82.6268 40.424C86.4018 38.6674 90.1458 36.8437 93.8598 34.9627C95.7758 33.9924 97.6788 32.999 99.5828 32.0059C100.618 31.4646 101.685 30.9722 102.743 30.4628C102.458 31.9254 102.074 33.3668 101.607 34.7849C101.222 35.9497 102.397 36.8097 103.436 36.6173C106.975 35.9624 110.396 34.6457 113.474 32.7815C114.999 31.8579 116.45 30.7906 117.796 29.6195C119.142 31.6252 120.777 33.5063 122.427 35.1254C123.541 36.2181 124.705 37.2577 125.913 38.2428C125.366 42.0112 124.897 45.7878 124.303 49.548C123.993 51.5136 123.619 53.4786 123.384 55.4546C123.129 57.6086 123.841 59.1426 125.258 60.7176C127.24 62.9176 127.238 66.1006 126.479 68.8336C126.386 69.1716 126.27 69.5016 126.15 69.8286C126.124 69.8966 126.05 70.0806 126.023 70.1526C126.023 70.1546 126.023 70.1566 126.021 70.1606C126.021 70.1626 126.019 70.1656 126.019 70.1666C126.017 70.1666 126.017 70.1696 126.015 70.1716V70.1756V70.1776L126.012 70.1796C125.924 70.3866 125.829 70.5896 125.734 70.7926C125.3 71.7076 124.817 72.6016 124.314 73.4816C121.842 77.8226 118.72 81.7936 115.162 85.2976C113.505 86.9296 111.784 88.4466 109.838 89.6896C109.428 89.9496 109.01 90.2006 108.581 90.4316C108.35 90.5556 108.114 90.6726 107.877 90.7906C107.531 90.9616 107.674 90.8946 107.463 90.9786C107.081 91.1286 106.69 91.2596 106.291 91.3636C106.077 91.4186 105.862 91.4646 105.644 91.5046C105.642 91.5046 105.638 91.5076 105.631 91.5076C105.629 91.5076 105.627 91.5096 105.625 91.5076C105.623 91.5096 105.619 91.5096 105.615 91.5096C105.534 91.5156 105.391 91.5286 105.363 91.5286C102.329 91.5386 99.3208 91.1316 96.3838 90.3766C94.7928 89.9666 93.2048 89.4696 91.7088 88.7876C90.9478 88.4386 90.2048 88.0516 89.4928 87.6136C89.1738 87.4176 88.8718 87.1806 88.5358 87.0096C88.0328 86.7516 87.5408 86.7796 86.9978 86.7566C86.1698 86.7226 85.5818 87.5886 85.7848 88.3496C86.0318 89.2776 86.4208 89.8246 87.2198 90.3766C87.8578 90.8166 88.5338 91.2046 89.2218 91.5576C90.7218 92.3296 92.3088 92.9566 93.9148 93.4706C96.9208 94.4296 100.086 95.0196 103.234 95.2356C105.526 95.3916 107.512 95.0856 109.599 94.1196C111.803 93.0986 113.778 91.5746 115.605 89.9936C119.698 86.4556 123.258 82.1636 126.277 77.6846C129.114 73.4746 131.315 68.8906 130.591 63.6636C130.301 61.5676 129.448 59.7626 128.03 58.1946Z" fill="#66280F"/>
<path fill-rule="evenodd" clip-rule="evenodd" d="M104.701 77.9725C103.281 77.3935 102.013 76.4265 101.087 75.1915C100.765 74.7615 100.681 74.3085 100.749 73.8935C100.825 73.4275 101.101 73.0045 101.477 72.7215C101.854 72.4375 102.326 72.2965 102.782 72.3685C103.178 72.4305 103.573 72.6475 103.885 73.0975L103.95 73.1875C104.501 73.9335 105.219 74.5445 106.037 74.9395C106.825 75.3195 107.706 75.4965 108.619 75.3935C110.356 75.1975 111.554 74.2575 112.827 72.9805C112.984 72.8195 113.142 72.6535 113.301 72.4845C113.401 72.3315 113.54 72.2325 113.694 72.1815C113.866 72.1235 114.06 72.1275 114.237 72.1895C114.409 72.2485 114.562 72.3625 114.664 72.5135C114.762 72.6565 114.817 72.8335 114.799 73.0375C114.683 74.3595 113.991 75.5405 113.009 76.4675C111.919 77.4975 110.473 78.2095 109.112 78.4595C107.612 78.7345 106.084 78.5375 104.701 77.9725ZM109.819 57.5645C111.415 58.5345 113.845 60.7965 112.129 63.2015C110.109 65.3225 107.2 62.8915 105.767 61.7915C104.438 60.9395 102.945 63.1315 104.178 64.1265C114.535 71.7975 118.738 57.8185 110.626 56.4245C109.733 56.2705 109.401 57.2645 109.819 57.5645ZM91.2587 48.6414C91.4347 46.4526 94.7677 45.9555 95.0987 48.1215C95.3957 50.0615 95.0457 51.8435 94.1727 53.5905C93.3377 55.2595 91.2397 54.4815 91.0807 52.9615C90.8687 50.9245 91.1487 50.0025 91.2587 48.6414ZM116.625 47.6723C117.089 47.0637 117.76 46.6481 118.564 46.883C121.075 47.617 120.335 51.1835 119.453 52.9185C118.974 53.8615 117.425 54.1005 116.725 53.2705C115.584 51.9175 115.038 49.2141 116.488 47.881C116.527 47.8121 116.571 47.7425 116.625 47.6723ZM94.1377 39.0639L94.5337 38.9944C95.7607 38.7821 97.2867 38.5781 98.1547 39.565C98.6147 40.0883 98.7737 41.0609 98.1547 41.5618C97.0657 42.4431 95.8627 42.1016 94.5587 42.1762C93.4837 42.2379 92.4507 42.4159 91.4147 42.712C89.1437 43.3615 87.2927 44.5471 85.3527 45.8491C85.0977 46.0198 84.8377 45.6941 84.9597 45.4559C86.0797 43.2615 88.2497 41.4589 90.4237 40.3601C91.5837 39.7736 92.8537 39.287 94.1377 39.0639ZM114.336 38.0808L114.639 38.143C117.943 38.8338 122.235 40.2138 123.8 43.46C123.859 43.919 123.796 44.0174 123.745 44.0817L123.728 44.1031C123.686 44.158 123.652 44.2336 123.453 44.2961C123.398 44.2829 123.342 44.269 123.286 44.2542C122.569 44.0662 122.002 43.8072 121.452 43.5385L120.857 43.245C120.166 42.9061 119.469 42.5795 118.73 42.3384C117.153 41.8239 115.532 41.4616 113.885 41.2681C113.528 41.2262 113.185 41.1057 112.913 40.8991C112.656 40.7031 112.46 40.4317 112.37 40.0709C112.254 39.6041 112.287 39.2506 112.537 38.8294C112.726 38.5131 112.995 38.2938 113.305 38.1679C113.62 38.0396 113.979 38.0093 114.336 38.0808Z" fill="#66280F"/>
</svg>
