<svg width="23" height="20" viewBox="0 0 23 20" fill="none" xmlns="http://www.w3.org/2000/svg">
<path d="M10.5734 7.91504C11.3753 7.91504 12.1444 8.23335 12.7114 8.79994C13.2784 9.36653 13.597 10.135 13.597 10.9363C13.597 11.7376 13.2784 12.506 12.7114 13.0726C12.1444 13.6392 11.3753 13.9575 10.5734 13.9575C9.77154 13.9575 9.00249 13.6392 8.43547 13.0726C7.86845 12.506 7.5499 11.7376 7.5499 10.9363C7.5499 10.135 7.86845 9.36653 8.43547 8.79994C9.00249 8.23335 9.77154 7.91504 10.5734 7.91504ZM10.5734 15.4681C13.9144 15.4681 16.6205 16.8201 16.6205 18.4894V20H4.52637V18.4894C4.52637 16.8201 7.23243 15.4681 10.5734 15.4681Z" fill="#D07F1E"/>
<path d="M11.2795 13.4243C10.2983 13.4243 9.38034 13.1017 8.68527 12.5104C8.66628 12.494 8.64728 12.4775 8.62914 12.4611C6.79037 10.8354 7.0976 8.05003 7.10984 7.93238L7.55761 7.98551C7.55424 8.01208 7.26219 10.6528 8.92582 12.1237L8.97604 12.1659C10.2915 13.2838 12.4654 13.2349 13.7247 12.0609C15.3478 10.5427 14.9819 7.91087 14.9819 7.88599L15.4276 7.82104C15.4449 7.93828 15.8281 10.7139 14.0349 12.3894C13.3449 13.0342 12.4029 13.4015 11.3833 13.4247L11.2795 13.4243Z" fill="#D07F1E"/>
<path d="M11.1837 13.859C11.0106 13.8589 10.8444 13.7907 10.7211 13.6692C10.5979 13.5477 10.5274 13.3826 10.525 13.2096C10.5228 13.035 10.59 12.8667 10.7118 12.7416C10.8337 12.6164 11.0002 12.5447 11.1749 12.542H11.1837C11.3569 12.5422 11.523 12.6104 11.6462 12.7319C11.7695 12.8534 11.84 13.0184 11.8425 13.1914C11.8438 13.2779 11.828 13.3638 11.796 13.4442C11.764 13.5246 11.7165 13.5979 11.6561 13.6599C11.5958 13.7219 11.5237 13.7714 11.4442 13.8056C11.3647 13.8397 11.2792 13.8579 11.1926 13.859H11.1837ZM11.1837 12.9924H11.1808C11.1395 12.9929 11.0994 13.0057 11.0654 13.029C11.0314 13.0524 11.0051 13.0853 10.9899 13.1235C10.9746 13.1618 10.971 13.2038 10.9796 13.2441C10.9882 13.2844 11.0086 13.3212 11.0381 13.35C11.0576 13.3693 11.0807 13.3844 11.1062 13.3945C11.1316 13.4046 11.1589 13.4094 11.1863 13.4086C11.2137 13.4085 11.2408 13.4028 11.2661 13.392C11.2913 13.3812 11.3141 13.3655 11.3331 13.3458C11.3722 13.3071 11.3944 13.2544 11.3947 13.1994C11.3938 13.1442 11.3711 13.0915 11.3316 13.0528C11.2922 13.0141 11.239 12.9924 11.1837 12.9924Z" fill="#D07F1E"/>
<path d="M12.8896 14.7409C12.8853 14.5722 12.8381 13.9919 12.403 13.6322C12.0721 13.359 11.615 13.2801 11.0436 13.3978C10.6752 13.4737 10.3658 13.7056 10.0388 13.9515C9.88092 14.07 9.7176 14.1927 9.54541 14.2981C9.47325 14.3424 9.33904 14.4246 9.17403 14.4048C9.0499 14.3861 8.93666 14.3234 8.85498 14.2281C8.49668 13.8532 8.43295 13.2265 8.71191 12.8015C8.86848 12.5619 9.15335 12.3933 9.49308 12.3376C9.97926 12.2583 10.511 12.4118 10.952 12.7593L10.7541 13.0102C10.8191 12.9887 10.8854 12.971 10.9524 12.9571C11.8387 12.7745 12.3873 13.0351 12.6899 13.2856C13.2563 13.7533 13.3331 14.4516 13.3399 14.7303L12.8896 14.7409ZM9.74883 12.7673C9.68705 12.7671 9.62536 12.772 9.56441 12.7821C9.34917 12.8171 9.1753 12.9141 9.08794 13.0477C8.92208 13.3008 8.96133 13.6908 9.17952 13.9169C9.19302 13.9322 9.20865 13.9456 9.22594 13.9565C9.2558 13.9462 9.28418 13.932 9.31035 13.9143C9.46439 13.8203 9.61209 13.7094 9.76824 13.5922C10.0295 13.3956 10.2975 13.1945 10.6089 13.0646C10.3602 12.8784 10.0595 12.7745 9.74883 12.7673Z" fill="#D07F1E"/>
<path d="M12.3682 14.6167C12.3192 14.6167 12.2702 14.6129 12.2218 14.6053C11.9922 14.5695 11.7668 14.4683 11.5124 14.2861C11.3056 14.1385 10.651 13.6139 10.9025 13.0632C10.9768 12.9008 11.1384 12.7899 11.4436 12.6921L11.528 12.6651C12.0167 12.5057 12.8363 12.2392 13.2617 12.8262C13.5149 13.1753 13.5174 13.667 13.2659 14.0782C13.0557 14.4189 12.7215 14.6167 12.3682 14.6167ZM11.3132 13.2496C11.2364 13.4182 11.487 13.7134 11.7749 13.9201C11.9703 14.0597 12.1344 14.136 12.2914 14.1604C12.5172 14.1954 12.7375 14.0761 12.8823 13.8425C13.0089 13.6316 13.0646 13.3191 12.8979 13.0902C12.6818 12.7929 12.172 12.9282 11.6685 13.0902L11.5841 13.118C11.3457 13.1943 11.3161 13.2466 11.3157 13.2475L11.3132 13.2496Z" fill="#D07F1E"/>
<path d="M21.3047 4.90308H1.32685C0.974948 4.90308 0.637458 5.04276 0.388626 5.29141C0.139793 5.54005 0 5.87729 0 6.22892H0C0 6.58056 0.139793 6.91779 0.388626 7.16643C0.637458 7.41508 0.974948 7.55476 1.32685 7.55476H21.3047C21.6566 7.55476 21.9941 7.41508 22.243 7.16643C22.4918 6.91779 22.6316 6.58056 22.6316 6.22892C22.6316 5.87729 22.4918 5.54005 22.243 5.29141C21.9941 5.04276 21.6566 4.90308 21.3047 4.90308Z" fill="#D07F1E"/>
<path d="M11.6944 0H10.9373C9.93431 0 8.9724 0.398134 8.26317 1.10682C7.55395 1.8155 7.15552 2.77668 7.15552 3.77891V8.55558H15.4762V3.77891C15.4762 2.77668 15.0778 1.8155 14.3685 1.10682C13.6593 0.398134 12.6974 0 11.6944 0V0Z" fill="#FFAB24"/>
<path d="M16.3228 6.60425H6.30896V8.55548H16.3228V6.60425Z" fill="#D07F1E"/>
<path d="M21.3047 7.55485H1.32685C0.974948 7.55485 0.637458 7.41516 0.388626 7.16652C0.139793 6.91787 0 6.58064 0 6.229H0C0 7.11805 0.353439 7.97068 0.982565 8.59933C1.61169 9.22798 2.46497 9.58115 3.35469 9.58115H19.2769C19.7174 9.58115 20.1537 9.49444 20.5607 9.32598C20.9677 9.15752 21.3375 8.9106 21.649 8.59933C21.9605 8.28805 22.2076 7.91851 22.3762 7.51181C22.5448 7.10511 22.6316 6.66921 22.6316 6.229C22.6316 6.58064 22.4918 6.91787 22.243 7.16652C21.9941 7.41516 21.6566 7.55485 21.3047 7.55485Z" fill="#FFAB24"/>
<path d="M21.3047 7.55485H1.32685C0.974948 7.55485 0.637458 7.41516 0.388626 7.16652C0.139793 6.91787 0 6.58064 0 6.229H0C0 7.11805 0.353439 7.97068 0.982565 8.59933C1.61169 9.22798 2.46497 9.58115 3.35469 9.58115H19.2769C19.7174 9.58115 20.1537 9.49444 20.5607 9.32598C20.9677 9.15752 21.3375 8.9106 21.649 8.59933C21.9605 8.28805 22.2076 7.91851 22.3762 7.51181C22.5448 7.10511 22.6316 6.66921 22.6316 6.229C22.6316 6.58064 22.4918 6.91787 22.243 7.16652C21.9941 7.41516 21.6566 7.55485 21.3047 7.55485Z" fill="#FFAB24"/>
<path d="M3.10913 9.5728C3.19016 9.5787 3.27203 9.58292 3.35475 9.58292H11.1622L9.15803 7.57981L7.16733 9.56858L5.15216 7.55493H5.12726L3.10913 9.5728Z" fill="#9CA324"/>
<path d="M19.4664 9.57539L17.4681 7.57861L15.4639 9.5813H19.2769C19.3406 9.5813 19.4035 9.57919 19.4664 9.57539Z" fill="#9CA324"/>
<path d="M11.2559 9.58123H15.3162L13.2883 7.55493H13.2833L11.2559 9.58123Z" fill="#9CA324"/>
<path d="M21.4848 7.56958L19.4785 9.57268C19.988 9.54238 20.4837 9.39616 20.928 9.14518C21.3723 8.89421 21.7533 8.54511 22.0419 8.12455L21.4848 7.56958Z" fill="#9CA324"/>
<path d="M0.572754 8.10295C0.852316 8.51707 1.22099 8.86351 1.6518 9.11691C2.08262 9.37031 2.56467 9.52428 3.06271 9.56754L1.08383 7.59058L0.572754 8.10295Z" fill="#9CA324"/>
</svg>
