<svg width="17" height="18" viewBox="0 0 17 18" fill="none" xmlns="http://www.w3.org/2000/svg">
<path d="M8.325 0.666748C3.775 0.666748 0.0666668 4.37508 0.0666668 8.92508C0.0666668 10.3834 0.45 11.8001 1.16667 13.0501L0 17.3334L4.375 16.1834C5.58333 16.8417 6.94167 17.1917 8.325 17.1917C12.875 17.1917 16.5833 13.4834 16.5833 8.93341C16.5833 6.72508 15.725 4.65008 14.1667 3.09175C12.6083 1.52508 10.5333 0.666748 8.325 0.666748ZM8.33333 2.05841C10.1667 2.05841 11.8833 2.77508 13.1833 4.07508C14.475 5.37508 15.1917 7.10008 15.1917 8.93341C15.1917 12.7167 12.1083 15.7917 8.325 15.7917C7.09167 15.7917 5.88333 15.4667 4.83333 14.8334L4.58333 14.6917L1.98333 15.3751L2.675 12.8417L2.50833 12.5751C1.825 11.5001 1.45833 10.2251 1.45833 8.92508C1.46667 5.14175 4.54167 2.05841 8.33333 2.05841ZM5.4 5.10841C5.26667 5.10841 5.04167 5.15841 4.85 5.36675C4.66667 5.57508 4.125 6.08341 4.125 7.09175C4.125 8.10841 4.86667 9.08342 4.95833 9.22508C5.075 9.36675 6.425 11.4501 8.5 12.3334C8.99167 12.5584 9.375 12.6834 9.675 12.7751C10.1667 12.9334 10.6167 12.9084 10.975 12.8584C11.375 12.8001 12.1917 12.3584 12.3667 11.8751C12.5417 11.3917 12.5417 10.9834 12.4917 10.8917C12.4333 10.8084 12.3 10.7584 12.0917 10.6667C11.8833 10.5501 10.8667 10.0501 10.6833 9.98341C10.4917 9.91675 10.375 9.88341 10.2167 10.0834C10.0833 10.2917 9.68333 10.7584 9.56667 10.8917C9.44167 11.0334 9.325 11.0501 9.125 10.9501C8.90833 10.8417 8.24167 10.6251 7.45833 9.92508C6.84167 9.37508 6.43333 8.70008 6.30833 8.49175C6.20833 8.29175 6.3 8.16675 6.4 8.07508C6.49167 7.98341 6.625 7.83341 6.70833 7.70841C6.81667 7.59175 6.85 7.50008 6.91667 7.36675C6.98333 7.22508 6.95 7.10841 6.9 7.00841C6.85 6.91675 6.43333 5.88341 6.25833 5.47508C6.09167 5.07508 5.925 5.12508 5.79167 5.11675C5.675 5.11675 5.54167 5.10841 5.4 5.10841Z" fill="#D07F1E"/>
</svg>
